<svg id="Layer_3" enable-background="new 0 0 64 64" height="512" viewBox="0 0 64 64" width="512" xmlns="http://www.w3.org/2000/svg"><path d="m57 18c0-8.837-6.268-16-14-16-4.467 0-8.437 2.4-11 6.123-2.563-3.723-6.533-6.123-11-6.123-7.732 0-14 7.163-14 16 0 6.253 3.146 11.654 7.721 14.286l.436 3.197c1.215 8.913 4.279 17.475 8.993 25.136.447.726 1.176 1.285 2.023 1.368 1.535.151 2.827-1.05 2.827-2.553v-16.264c0-1.624 1.216-3.081 2.839-3.166 1.73-.09 3.161 1.286 3.161 2.996v16.275c0 1.194.739 2.329 1.892 2.637 1.13.301 2.276-.184 2.859-1.132l.098-.16c4.715-7.662 7.778-16.223 8.993-25.137l.436-3.197c4.576-2.632 7.722-8.033 7.722-14.286z" fill="#c7e2fc"/><path d="m45 22.5c0-7.354-2.788-14.073-7.39-19.239-2.212 1.062-4.146 2.735-5.61 4.862-2.563-3.723-6.533-6.123-11-6.123-7.732 0-14 7.163-14 16 0 6.253 3.146 11.654 7.721 14.286l.436 3.197c.757 5.551 2.232 10.965 4.375 16.111 3.375-.542 6.565-1.614 9.469-3.135v-5.289c0-1.625 1.216-3.081 2.839-3.166 1.729-.09 3.16 1.286 3.16 2.996v1.343c6.143-5.397 10-13.184 10-21.843z" fill="#ebf7fe"/><g fill="#a1cdfb"><path d="m24.23 32.018c.502-1.395.77-2.89.77-4.435v-.583h-2v.583c0 4.193-2.33 7.964-6.058 9.828l-1.367.64c.12.677.256 1.35.398 2.023l1.84-.863c2.369-1.185 4.252-3.013 5.498-5.211h.546c2.404 0 4.664.936 6.364 2.636l.071.071 1.414-1.414-.071-.071c-1.988-1.99-4.607-3.111-7.405-3.204z"/><path d="m51.211 6.814.611-1.231c-.509-.473-1.055-.895-1.62-1.284l-.097.254-.683 1.367c-1.875 3.75-5.645 6.08-9.839 6.08h-.583v2h.583c1.544 0 3.04-.268 4.435-.77.093 2.798 1.214 5.417 3.204 7.406l.071.071 1.414-1.414-.071-.071c-1.7-1.7-2.636-3.96-2.636-6.364v-.546c2.199-1.246 4.027-3.129 5.211-5.498z"/><path d="m25.222 7.364c-1.7 1.7-3.96 2.636-6.364 2.636h-1.481c-.624-1.95-1.703-3.741-3.201-5.239l-.44-.419c-.55.383-1.082.796-1.578 1.259l.621.592c2.077 2.077 3.221 4.839 3.221 7.807l2-.029c0-.667-.065-1.323-.163-1.971h1.021c2.938 0 5.7-1.144 7.778-3.222l.071-.071-1.414-1.414z"/><path d="m51.636 30.222c-2.078-2.078-4.84-3.222-7.778-3.222h-1.023c.1-.656.166-1.322.166-2l-2 .029c0 2.938-1.144 5.701-3.222 7.778l-.485.485 1.414 1.414.485-.485c1.486-1.485 2.56-3.27 3.182-5.222h1.483c2.404 0 4.664.936 6.393 2.664.551-.382 1.076-.807 1.574-1.269z"/><path d="m30.011 19.085c.453-.051.911-.085 1.374-.085h.615v-2h-.615c-3.74 0-7.255 1.456-9.899 4.101l-.192.192 1.414 1.414.192-.192c1.452-1.452 3.212-2.48 5.131-3.036.15 2.704 1.261 5.227 3.191 7.157l.071.071 1.414-1.414-.071-.071c-1.646-1.646-2.568-3.819-2.625-6.137z"/></g></svg>