<svg height="512pt" viewBox="-27 0 512 512.17329" width="512pt" xmlns="http://www.w3.org/2000/svg"><path d="m149.574219 295.988281 15.976562 77.683594 7.238281 34.78125 7.414063 35.839844 7.238281 34.78125c4.792969 19.703125 22.609375 33.453125 42.886719 33.09375 20.277344-.363281 37.59375-14.734375 41.683594-34.59375l5.824219-27.984375v-.089844l8.210937-39.8125 8.472656-40.960938v-.085937l8.300781-39.902344 6.707032-32.75zm0 0" fill="#bdc3c7"/><path d="m160.386719 450.792969 133.613281-43.671875c9.269531-3.03125 19.238281 2.027344 22.265625 11.292968 3.03125 9.269532-2.027344 19.238282-11.292969 22.269532l-133.613281 43.671875c-9.269531 3.03125-19.238281-2.027344-22.269531-11.292969-3.027344-9.269531 2.027344-19.238281 11.296875-22.269531zm0 0" fill="#7f8c8d"/><path d="m144.222656 380.628906 168.125-54.957031c9.265625-3.027344 19.234375 2.03125 22.265625 11.296875 3.027344 9.269531-2.027343 19.238281-11.296875 22.265625l-168.125 54.957031c-9.269531 3.027344-19.238281-2.027344-22.265625-11.296875-3.03125-9.269531 2.027344-19.238281 11.296875-22.265625zm0 0" fill="#7f8c8d"/><path d="m422.167969 35.222656c-27.84375-25.214844-64.871094-37.800781-102.3125-34.78125-33.332031 1.402344-65.191407 14.140625-90.304688 36.105469-2.824219-2.5625-5.738281-5.03125-8.828125-7.328125-28.679687-20.855469-63.746094-31.035156-99.132812-28.777344-31.464844 1.121094-61.492188 13.457032-84.65625 34.78125-40.429688 38.753906-43.078125 126.058594-29.398438 185.730469 2.730469 12.5625 9.414063 23.914063 19.070313 32.398437 17.917969 15.449219 53.40625 34.25 122.96875 42.636719 22.800781 2.613281 45.726562 4.027344 68.675781 4.238281 1.679688.085938 3.355469 0 4.945312 0 2.117188.085938 4.238282.085938 6.355469.085938 26.722657.148438 53.425781-1.296875 79.976563-4.324219 69.5625-8.386719 105.050781-27.1875 122.96875-42.636719 9.65625-8.484374 16.339844-19.835937 19.066406-32.398437 13.683594-59.671875 11.035156-146.976563-29.394531-185.730469zm0 0" fill="#e4c05c"/><path d="m404.511719 35.222656c-23.164063-21.324218-53.191407-33.660156-84.65625-34.78125-35.386719-2.257812-70.453125 7.921875-99.132813 28.777344-3.089844 2.296875-6.003906 4.765625-8.828125 7.328125-25.113281-21.964844-56.972656-34.703125-90.304687-36.105469-31.464844 1.121094-61.492188 13.457032-84.65625 34.78125-40.429688 38.753906-43.078125 126.058594-29.398438 185.730469 2.730469 12.5625 9.414063 23.914063 19.070313 32.398437 17.917969 15.449219 53.40625 34.25 122.96875 42.636719 22.800781 2.613281 45.726562 4.027344 68.675781 4.238281 1.679688.085938 3.355469 0 4.945312 0 22.949219-.210937 45.875-1.625 68.679688-4.238281 69.558594-8.386719 105.046875-27.1875 122.964844-42.636719 9.65625-8.484374 16.339844-19.835937 19.070312-32.398437 13.683594-59.671875 11.035156-146.976563-29.398437-185.730469zm0 0" fill="#f9eab0"/><path d="m316.75 91.488281c-47.203125 0-102.585938-52.726562-104.855469-54.941406-3.484375-3.417969-14.125-11.476563-11.667969-15.667969 2.339844-3.929687 17.019532 4.898438 20.496094 8.339844.503906.496094 56.046875 44.613281 96.027344 44.613281 4.875 0 8.828125 3.953125 8.828125 8.828125s-3.953125 8.828125-8.828125 8.828125zm0 0" fill="#e4c05c"/><g fill="#fff"><path d="m41.980469 175.996094c-3.976563-.003906-7.460938-2.667969-8.507813-6.507813-23.730468-87.003906 37.179688-117.378906 37.800782-117.679687 4.359374-1.957032 9.484374-.09375 11.566406 4.210937 2.078125 4.304688.355468 9.480469-3.886719 11.679688-2.109375 1.050781-48.15625 24.875-28.445313 97.101562.726563 2.65625.167969 5.5-1.503906 7.6875-1.671875 2.183594-4.269531 3.464844-7.023437 3.464844zm0 0"/><path d="m114.792969 44.3125c0 4.878906-3.953125 8.828125-8.828125 8.828125s-8.828125-3.949219-8.828125-8.828125c0-4.875 3.953125-8.824219 8.828125-8.824219s8.828125 3.949219 8.828125 8.824219zm0 0"/></g></svg>