<svg height="512" viewBox="0 0 48 60" width="512" xmlns="http://www.w3.org/2000/svg"><g id="004---Dental-Crown" fill="none"><g id="Layer_5" transform="translate(1 1)"><path id="Shape" d="m46 13c-.1247315 6.2509982-.9941994 12.4648402-2.59 18.51-.2281152.8787805-1.0220965 1.4917506-1.93 1.49h-36.96c-.90790347.0017506-1.70188481-.6112195-1.93-1.49-1.59580061-6.0451598-2.46526852-12.2590018-2.59-18.51 0-8.88 6.11-12.24 10.46-12.88 4.822-.7 7.232 2.046 11.04 2.74 4.836.907 7.752-2.86 12.5-2.86 4.25 0 12 3 12 13z" fill="#fff"/><path id="Shape" d="m46 13c-.1247315 6.2509982-.9941994 12.4648402-2.59 18.51-.2281152.8787805-1.0220965 1.4917506-1.93 1.49h-3c.9079035.0017506 1.7018848-.6112195 1.93-1.49 1.5958006-6.0451598 2.4652685-12.2590018 2.59-18.51 0-8.88-6.11-12.24-10.46-12.88.4823866-.08130285.970812-.12144741 1.46-.12 4.25 0 12 3 12 13z" fill="#e8edfc"/><path id="Shape" d="m45 53.72v2.28c-.0032948 1.1032019-.8967981 1.9967052-2 2h-40c-1.10320187-.0032948-1.9967052-.8967981-2-2v-2.28c.00255953-.8944768.59873924-1.6784939 1.46-1.92 2.7-.8 4.19-3.92 4.49-8.9.05313291-1.0614787.92719981-1.8960149 1.99-1.9h28.12c1.0628002.0039851 1.9368671.8385213 1.99 1.9.3 4.98 1.79 8.1 4.49 8.9.8612608.2415061 1.4574405 1.0255232 1.46 1.92z" fill="#a4c2f7"/><path id="Shape" d="m42 53.72v2.28c-.0032948 1.1032019-.8967981 1.9967052-2 2h-37c-1.10320187-.0032948-1.9967052-.8967981-2-2v-2.28c.00255953-.8944768.59873924-1.6784939 1.46-1.92 2.7-.8 4.19-3.92 4.49-8.9.05313291-1.0614787.92719981-1.8960149 1.99-1.9h25.12c1.0628002.0039851 1.9368671.8385213 1.99 1.9.3 4.98 1.79 8.1 4.49 8.9.8612608.2415061 1.4574405 1.0255232 1.46 1.92z" fill="#cad9fc"/></g><g id="Layer_3" fill="#fff" transform="translate(1 1)"><path id="Shape" d="m4 56v-2.28c.00255953-.8944768.59873924-1.6784939 1.46-1.92 2.7-.8 4.19-3.92 4.49-8.9.0531329-1.0614787.9271998-1.8960149 1.99-1.9h-3c-1.06280019.0039851-1.93686709.8385213-1.99 1.9-.3 4.98-1.79 8.1-4.49 8.9-.86126076.2415061-1.45744047 1.0255232-1.46 1.92v2.28c.0032948 1.1032019.89679813 1.9967052 2 2h3c-1.10320187-.0032948-1.9967052-.8967981-2-2z"/><path id="Shape" d="m4.52 33h3c-.90790347.0017506-1.70188481-.6112195-1.93-1.49-1.59580061-6.0451598-2.46526852-12.2590018-2.59-18.51 0-8.872 6.1-12.234 10.448-12.878-.9894613-.16140008-1.9985387-.16140008-2.988 0-4.35.638-10.46 3.998-10.46 12.878.12473148 6.2509982.99419939 12.4648402 2.59 18.51.22811519.8787805 1.02209653 1.4917506 1.93 1.49z"/></g><path id="Shape" d="m.958 24.847 1.974-.322c.426 2.6.967 5.187 1.627 7.734l-1.936.505c-.67666667-2.616-1.23166667-5.255-1.665-7.917z" fill="#fff"/><g fill="#428dff"><path id="Shape" d="m2.112 25.672c.54036089-.0947858.90514312-.6050361.82-1.147-.58834045-3.4781882-.89998359-6.9975487-.932-10.525 0-9.844 7.94-12 11-12 1.8415861.10063747 3.6401072.59545244 5.274 1.451 1.7759005.91995246 3.7285093 1.44817303 5.726 1.549 1.9974907-.10082697 3.9500995-.62904754 5.726-1.549 1.6338928-.85554756 3.4324139-1.35036253 5.274-1.451 9.024 0 11 8.662 11 12-.127312 6.1664937-.9863245 12.296063-2.559 18.26-.1175971.4367415-.5137034.740177-.966.74h-36.95c-.45229661.000177-.84840291-.3032585-.966-.74-.14743277-.5234152-.68609663-.8330843-1.21260387-.6971062-.52650723.1359781-.84785484.6677576-.72339613 1.1971062.34557147 1.3195997 1.53790208 2.2399376 2.902 2.24h36.95c1.362206-.0004935 2.5530916-.9187074 2.9-2.236 1.6149343-6.1286545 2.4961083-12.4274547 2.625-18.764 0-10.271-7.774-14-13-14-2.117925.09325425-4.190341.64530712-6.074 1.618-1.5263602.80241162-3.2050012 1.273358-4.926 1.382-1.7209988-.108642-3.3996398-.57958838-4.926-1.382-1.883659-.97269288-3.956075-1.52474575-6.074-1.618-5.226 0-13 3.729-13 14 .03216625 3.6353027.35250324 7.2623334.958 10.847.04285884.2628141.18876871.4976805.40539091.6525447.21662221.1548642.48606449.216935.74860909.1724553z"/><path id="Shape" d="m2.7 29.619c.55228475 0 1-.4477153 1-1s-.44771525-1-1-1h-.012c-.55228474.0030376-.99753755.4532153-.99449999 1.0055.00303757.5522847.45321525.9975376 1.00549999.9945z"/><path id="Shape" d="m9 7.146c.17237722.00012351.34185944-.0443139.492-.129 1.0781496-.59807243 2.2771428-.9456711 3.508-1.017.5522847 0 1-.44771525 1-1s-.4477153-1-1-1c-1.5762006.07209484-3.11418516.50887835-4.493 1.276-.39505345.22388711-.58966677.68584424-.47390885 1.12492597.11575791.43908174.51282443.74505055.96690885.74507403z"/><path id="Shape" d="m6.635 8.127c-.23164741-.12938237-.50521766-.16139994-.76048044-.08900359s-.47128976.24327103-.60051956.47500359c-.88732809 1.6898008-1.32599584 3.5791021-1.274 5.487 0 .6806667.014 1.361.042 2.041.02200294.5362105.46333846.9594512 1 .959h.041c.26511334-.0106574.51512356-.1262377.69498861-.3212946.17986505-.195057.27483861-.4535989.26401139-.7187054-.028-.652-.042-1.307-.042-1.96-.05036435-1.5668128.30112172-3.1204432 1.021-4.513.26875436-.48216887.09598009-1.09090723-.386-1.36z"/><path id="Shape" d="m36 5c0-.55228475-.4477153-1-1-1-1.5635876.11068748-3.0866391.54774295-4.471 1.283l.8 1.833c1.1357609-.6160536 2.3845322-.9956855 3.671-1.116.2652165 0 .5195704-.10535684.7071068-.29289322s.2928932-.44189029.2928932-.70710678z"/><path id="Shape" d="m47 57v-2.283c-.001103-1.3389631-.8913804-2.5142927-2.18-2.878-2.774-.818-3.58-4.8-3.768-7.994-.0887711-1.5900092-1.399538-2.8363768-2.992-2.845h-28.12c-1.59246204.0086232-2.90322894 1.2549908-2.992 2.845-.188 3.2-.994 7.176-3.768 7.994-1.28861959.3637073-2.17889701 1.5390369-2.18 2.878v2.283c0 1.6568542 1.34314575 3 3 3h40c1.6568542 0 3-1.3431458 3-3zm-44 0v-2.283c.00585949-.4505429.31001571-.8424758.745-.96 2.147-.632 4.791-2.845 5.2-9.795.02593063-.5349102.46448684-.9568013 1-.962h28.115c.5355132.0051987.9740694.4270898 1 .962.408 6.95 3.052 9.163 5.2 9.795.4349843.1175242.7391405.5094571.745.96v2.283c0 .5522847-.4477153 1-1 1h-40.005c-.55228475 0-1-.4477153-1-1z"/><path id="Shape" d="m38 52h-28c-.55228475 0-1 .4477153-1 1s.44771525 1 1 1h28c.5522847 0 1-.4477153 1-1s-.4477153-1-1-1z"/></g></g></svg>