<?xml version="1.0" encoding="iso-8859-1"?>
<!-- Generator: Adobe Illustrator 19.0.0, SVG Export Plug-In . SVG Version: 6.00 Build 0)  -->
<svg version="1.1" id="Capa_1" xmlns="http://www.w3.org/2000/svg" xmlns:xlink="http://www.w3.org/1999/xlink" x="0px" y="0px"
	 viewBox="0 0 512 512" style="enable-background:new 0 0 512 512;" xml:space="preserve">
<path style="fill:#F0F0ED;" d="M391.955,234.071c18.781-21.314,44.501-50.505,44.501-122.353c0-30.537-12.68-58.694-35.705-79.284
	C377.364,11.518,344.675,0,308.707,0c-29.216,0-57.916,13.129-79.917,36.299C206.916,13.434,177.431,0,148.394,0
	c-35.968,0-68.657,11.518-92.045,32.434c-23.025,20.59-35.705,48.747-35.705,79.284c0,71.848,25.72,101.038,44.501,122.353
	c15.553,17.651,23.36,26.511,12.282,50.882C44.986,356.326,63.523,452.451,88.738,491.61C97.45,505.14,106.733,512,116.331,512
	c17.894,0,24.526-25.897,33.703-61.74c6.597-25.763,14.074-54.963,26.542-77.746c13.574-24.802,30.574-36.859,51.975-36.859
	s38.401,12.057,51.975,36.859c12.467,22.781,19.945,51.983,26.542,77.746c9.178,35.843,15.809,61.74,33.703,61.74
	c9.598,0,18.881-6.86,27.593-20.391c25.215-39.159,43.752-135.284,11.311-206.657C368.596,260.582,376.402,251.722,391.955,234.071z
	"/>
<path style="fill:#FFEFCF;" d="M391.955,234.071c18.781-21.314,44.501-50.505,44.501-122.353c0-30.537-12.68-58.694-35.705-79.284
	C377.364,11.518,344.675,0,308.707,0c-29.216,0-57.916,13.129-79.917,36.299C206.916,13.434,177.431,0,148.394,0
	c-35.968,0-68.657,11.518-92.045,32.434c-23.025,20.59-35.705,48.747-35.705,79.284c0,71.848,25.72,101.038,44.501,122.353
	c15.553,17.651,23.36,26.511,12.282,50.882C44.986,356.326,63.523,452.451,88.738,491.61C97.45,505.14,106.733,512,116.331,512
	c17.894,0,24.526-25.897,33.703-61.74c6.597-25.763,14.074-54.963,26.542-77.746c13.574-24.802,30.574-36.859,51.975-36.859
	s38.401,12.057,51.975,36.859c12.467,22.781,19.945,51.983,26.542,77.746c9.178,35.843,15.809,61.74,33.703,61.74
	c9.598,0,18.881-6.86,27.593-20.391c25.215-39.159,43.752-135.284,11.311-206.657C368.596,260.582,376.402,251.722,391.955,234.071z
	"/>
<g>
	<path style="fill:#FFE5AB;" d="M308.707,0c-26.653,0-52.874,10.93-73.973,30.439c-15.691,18.152-25.706,40.789-46.261,57.232
		C252.597,87.671,236.566,15.53,308.707,0z"/>
	<path style="fill:#FFE5AB;" d="M120.3,491.609c-25.215-39.159-43.752-135.284-11.311-206.657
		c11.078-24.371,3.271-33.231-12.282-50.882c-18.781-21.314-44.501-50.504-44.501-122.352c0-30.537,12.68-58.694,35.705-79.284
		c19.445-17.39,45.323-28.275,74.167-31.454C157.526,0.333,152.955,0,148.394,0c-35.968,0-68.657,11.518-92.045,32.434
		c-23.025,20.59-35.705,48.747-35.705,79.284c0,71.848,25.72,101.038,44.501,122.353c15.553,17.651,23.36,26.511,12.282,50.882
		C44.986,356.326,63.523,452.451,88.738,491.61C97.45,505.14,106.733,512,116.331,512c5.818,0,10.44-2.752,14.352-7.679
		C127.146,501.091,123.679,496.858,120.3,491.609z"/>
	<path style="fill:#FFE5AB;" d="M338.628,450.26c-6.597-25.763-14.073-54.963-26.542-77.746
		c-13.574-24.802-30.575-36.859-51.975-36.859c-5.552,0-10.804,0.819-15.781,2.454c14.207,4.667,26.141,16.037,36.194,34.405
		c12.467,22.781,19.945,51.983,26.542,77.746c9.178,35.843,15.809,61.74,33.703,61.74c5.874,0,11.63-2.583,17.21-7.679
		C349.86,494.094,344.821,474.45,338.628,450.26z"/>
</g>
<path style="fill:#F498AC;" d="M486.651,253.279L395.623,81.336c-7.07-13.353-20.311-21.326-35.421-21.326
	s-28.351,7.973-35.421,21.326l-91.029,171.943c-6.636,12.535-6.231,27.274,1.085,39.425c7.316,12.152,20.151,19.406,34.336,19.406
	h182.059c14.183,0,27.019-7.254,34.335-19.405C492.883,280.554,493.287,265.815,486.651,253.279z"/>
<path style="fill:#F17E97;" d="M309.255,296.078c-14.184,0-27.02-7.254-34.336-19.406c-7.316-12.151-7.721-26.89-1.085-39.425
	l91.029-171.943c0.856-1.615,1.806-3.149,2.834-4.602c-2.433-0.445-4.934-0.692-7.494-0.692c-15.109,0-28.351,7.973-35.421,21.326
	l-91.029,171.943c-6.636,12.535-6.231,27.274,1.085,39.425c7.316,12.152,20.151,19.406,34.336,19.406h182.058
	c12.81,0,24.506-5.933,32.044-16.031H309.255z"/>
<g>
	<path style="fill:#FFFFFF;" d="M360.202,119.734c-8.854,0-16.031,7.177-16.031,16.031v64.624c0,8.854,7.177,16.031,16.031,16.031
		c8.854,0,16.031-7.177,16.031-16.031v-64.624C376.234,126.911,369.057,119.734,360.202,119.734z"/>
	<circle style="fill:#FFFFFF;" cx="359.292" cy="262.523" r="15.532"/>
</g>
<g>
</g>
<g>
</g>
<g>
</g>
<g>
</g>
<g>
</g>
<g>
</g>
<g>
</g>
<g>
</g>
<g>
</g>
<g>
</g>
<g>
</g>
<g>
</g>
<g>
</g>
<g>
</g>
<g>
</g>
</svg>
